<svg width="596" height="128" viewBox="0 0 596 128" fill="none" xmlns="http://www.w3.org/2000/svg">
<path fill-rule="evenodd" clip-rule="evenodd" d="M0 25C0 11.1929 11.1929 0 25 0H103C116.807 0 128 11.1929 128 25V103C128 116.807 116.807 128 103 128H55.5453C60.9637 121.818 64.2518 113.725 64.2518 104.879C64.2518 85.9118 31.332 42.864 29.9301 41.0413L29.1257 40L28.3214 41.0481C27.3018 42.373 9.56461 65.5654 0 85.3969V25ZM89.1259 50.4394C89.1259 60.1227 81.2467 68 71.5629 68C61.8792 68 54.0002 60.1227 54 50.4411C54 40.9591 70.4607 19.4337 71.1607 18.5241L71.5629 18L71.965 18.5207C72.666 19.432 89.1259 40.9559 89.1259 50.4394Z" fill="white"/>
<path d="M214.56 27.768V100.536H199.968V69.432H170.592V100.536H156V27.768H170.592V56.952H199.968V27.768H214.56ZM292.276 88.632C306.004 88.632 314.548 79.224 314.548 64.152C314.548 49.08 306.004 39.672 292.276 39.672C278.548 39.672 270.004 49.08 270.004 64.152C270.004 79.224 278.548 88.632 292.276 88.632ZM292.276 27C313.876 27 329.14 42.36 329.14 64.152C329.14 85.944 313.876 101.304 292.276 101.304C270.676 101.304 255.412 85.944 255.412 64.152C255.412 42.36 270.676 27 292.276 27ZM347.049 83.064C348.681 87.672 353.289 89.976 356.169 89.976C360.297 89.976 362.697 88.536 362.697 86.136C362.697 83.928 359.241 82.776 354.825 81.144C348.393 78.84 339.369 75.672 339.369 66.552C339.369 57.912 347.145 52.92 357.129 52.92C363.081 52.92 371.529 56.376 374.025 64.824L363.945 68.664C362.313 63.768 358.857 63.288 357.129 63.288C353.577 63.288 351.753 64.536 351.753 66.552C351.753 68.664 355.017 69.72 359.529 71.352C366.057 73.656 374.985 76.92 374.985 85.848C374.985 94.68 367.497 100.344 356.169 100.344C348.873 100.344 340.617 95.448 337.545 88.44L347.049 83.064ZM387.624 100.152V63.864H378.504V53.208H387.624V36.696H400.008V53.208H411.048V63.864H400.008V100.152H387.624ZM430.926 79.512C430.926 86.424 434.766 89.976 440.622 89.976C446.478 89.976 450.414 86.04 450.222 79.128V53.4H462.606V100.152H450.222V94.584C447.342 98.52 442.446 100.344 437.934 100.344C426.51 100.344 418.542 92.376 418.542 79.704V53.4H430.926V79.512ZM492.347 100.344C479.387 100.344 470.555 90.648 470.555 76.824C470.555 63.096 479.387 53.304 492.347 53.304C494.843 53.304 501.083 54.264 505.307 59.832V30.744H517.691V100.152H505.307V93.912C501.083 99.096 494.843 100.344 492.347 100.344ZM493.691 90.36C500.123 90.36 505.307 84.6 505.307 77.112C505.307 69.528 500.123 63.768 493.691 63.768C487.067 63.768 482.939 68.856 482.939 77.112C482.939 85.272 487.067 90.36 493.691 90.36ZM529.427 53.304H541.811V100.056H529.427V53.304ZM535.667 29.784C539.507 29.784 542.291 32.568 542.291 36.408C542.291 40.344 539.507 43.128 535.667 43.128C531.731 43.128 528.947 40.344 528.947 36.408C528.947 32.568 531.731 29.784 535.667 29.784ZM572.953 89.976C579.289 89.976 583.321 84.984 583.321 76.824C583.321 68.76 579.289 63.672 572.953 63.672C566.617 63.672 562.585 68.664 562.585 76.824C562.585 84.984 566.521 89.976 572.953 89.976ZM572.953 53.304C586.297 53.304 595.705 63 595.705 76.824C595.705 90.552 586.297 100.344 572.953 100.344C559.609 100.344 550.201 90.552 550.201 76.824C550.201 63 559.609 53.304 572.953 53.304Z" fill="white"/>
<path d="M231.208 86.728C228.904 88.744 226.408 90.76 224.008 93.064L224.968 100.648H250.408V92.872H237.64C243.688 88.072 249.928 82.408 249.928 74.728C249.928 66.568 244.264 60.808 236.104 60.808C230.248 60.808 224.584 64.648 222.28 70.216L229.768 73.576C230.824 70.888 233.512 69.064 236.104 69.064C239.08 69.064 241.096 71.368 241.096 74.728C241.096 78.76 236.104 82.792 231.208 86.728Z" fill="white"/>
</svg>
