<svg xmlns="http://www.w3.org/2000/svg" width="50" height="200" viewBox="0 0 50 200">
  <g transform="translate(5 5)">
    <path style="fill:none" d="M0 0h11v11H0z"/>
    <path transform="translate(1 7)" style="fill:#fff" d="M0 0h9v3H0z"/>
  </g>
  <g transform="translate(5 55)">
    <g transform="translate(-151 -178)">
      <path style="fill:#fff" transform="translate(155 179)" d="M0 0h7v2H0z"/>
      <path style="fill:#fff" transform="translate(152 182)" d="M0 0h7v2H0z"/>
      <path style="fill:#fff" transform="translate(155 179)" d="M0 0h1v5H0z"/>
      <path style="fill:#fff" transform="translate(161 179)" d="M0 0h1v7H0z"/>
      <path style="fill:#fff" transform="translate(158 185)" d="M0 0h4v1H0z"/>
      <path style="fill:#fff" transform="translate(158 183)" d="M0 0h1v6H0z"/>
      <path style="fill:#fff" transform="translate(152 183)" d="M0 0h1v6H0z"/>
      <path style="fill:#fff" transform="translate(152 188)" d="M0 0h7v1H0z"/>
      <path transform="translate(151 178)" style="fill:none" d="M0 0h11v11H0z"/>
    </g>
  </g>
  <g transform="translate(5 105)">
    <g transform="translate(-151 -178)">
      <path transform="translate(151 178)" style="fill:none" d="M0 0h11v11H0z"/>
      <path style="fill:#fff" transform="translate(152 179)" d="M0 0h9v3H0z"/>
      <path style="fill:#fff" transform="translate(160 181)" d="M0 0h1v7H0z"/>
      <path style="fill:#fff" transform="translate(152 181)" d="M0 0h1v7H0z"/>
      <path style="fill:#fff" transform="translate(152 187)" d="M0 0h9v1H0z"/>
    </g>
  </g>
  <g transform="translate(5 155)">
    <g transform="translate(-175 -178)">
      <path style="fill:#fff" transform="translate(176 179)" d="M0 0h2v2H0z"/>
      <path style="fill:#fff" transform="translate(177 180)" d="M0 0h2v2H0z"/>
      <path style="fill:#fff" transform="translate(178 181)" d="M0 0h2v2H0z"/>
      <path style="fill:#fff" transform="translate(178 184)" d="M0 0h2v2H0z"/>
      <path style="fill:#fff" transform="translate(177 185)" d="M0 0h2v2H0z"/>
      <path style="fill:#fff" transform="translate(176 186)" d="M0 0h2v2H0z"/>
      <path style="fill:#fff" transform="translate(181 184)" d="M0 0h2v2H0z"/>
      <path style="fill:#fff" transform="translate(179 182)" d="M0 0h3v3H0z"/>
      <path style="fill:#fff" transform="translate(182 185)" d="M0 0h2v2H0z"/>
      <path style="fill:#fff" transform="translate(183 186)" d="M0 0h2v2H0z"/>
      <path style="fill:#fff" transform="translate(181 181)" d="M0 0h2v2H0z"/>
      <path style="fill:#fff" transform="translate(182 180)" d="M0 0h2v2H0z"/>
      <path style="fill:#fff" transform="translate(183 179)" d="M0 0h2v2H0z"/>
      <path transform="translate(175 178)" style="fill:none" d="M0 0h11v11H0z"/>
    </g>
  </g>
</svg>
