<svg width="863" height="89" viewBox="0 0 863 89" fill="none" xmlns="http://www.w3.org/2000/svg">
<path d="M29.328 37.44C35.952 37.44 40.56 32.448 40.56 25.44C40.56 18.432 35.952 13.44 29.328 13.44H15.216V37.44H29.328ZM29.808 0.959999C44.688 0.959999 55.152 11.04 55.152 25.44C55.152 39.84 44.688 49.92 29.808 49.92H15.216V73.728H0.624001V0.959999H29.808ZM78.4013 0.959999V61.248H109.217V73.728H63.8093V0.959999H78.4013ZM146.904 74.4C128.664 74.4 117.816 62.016 117.816 44.352V0.959999H132.408V44.16C132.408 54.336 136.824 60.768 146.904 60.768C156.984 60.768 161.4 54.336 161.4 44.16V0.959999H175.992V44.352C175.992 62.016 165.144 74.4 146.904 74.4ZM256.523 34.944V41.952C256.523 61.728 243.851 74.496 222.443 74.496C200.843 74.496 185.579 59.136 185.579 37.344C185.579 15.552 200.843 0.287996 222.443 0.287996C245.483 0.287996 253.835 17.76 253.835 17.76L241.643 24.576C241.643 24.576 236.075 12.96 222.347 12.96C208.715 12.96 200.171 22.368 200.171 37.344C200.171 52.416 208.715 61.824 222.347 61.824C232.139 61.824 241.643 57.888 241.931 46.464H223.307V34.944H256.523ZM291.908 0.959999H306.5V73.728H291.908V0.959999ZM381.571 0.959999V73.728H365.059L334.243 25.248V73.728H319.651V0.959999H336.163L366.979 49.536V0.959999H381.571ZM409.439 61.152L401.087 88.992H390.335L394.847 61.152H409.439Z" fill="white"/>
<path d="M510.113 0.863995L481.505 33.408L510.497 73.728H492.545L471.521 44.544L462.497 54.528V73.728H447.905V1.056H462.497V32.928L490.721 0.863995H510.113ZM561.974 0.959999L588.182 73.728H572.63L566.102 55.488H539.702L532.982 73.728H517.43L544.31 0.959999H561.974ZM544.31 43.008H561.59L553.142 19.104L544.31 43.008ZM626.417 37.44C633.233 37.44 637.553 33.408 637.553 25.44C637.553 17.472 633.233 13.44 626.417 13.44H612.593V37.44H626.417ZM655.601 73.728H638.129L622.481 49.92H612.593V73.728H598.001V0.959999H629.585C642.833 0.959999 652.145 10.272 652.145 24.864C652.145 33.504 649.841 40.8 638.225 47.328L655.601 73.728ZM714.227 0.959999V13.44H695.219V73.728H680.627V13.44H661.235V0.959999H714.227ZM747.814 0.959999H762.406V73.728H747.814V0.959999ZM837.477 0.959999V73.728H820.965L790.149 25.248V73.728H775.557V0.959999H792.069L822.885 49.536V0.959999H837.477ZM855.362 60.576C859.778 60.576 862.946 63.744 862.946 68.16C862.946 72.576 859.778 75.744 855.362 75.744C850.946 75.744 847.778 72.576 847.778 68.16C847.778 63.744 850.946 60.576 855.362 60.576Z" fill="#0AACDF"/>
</svg>
