<svg width="50" height="50" viewBox="0 0 50 50" fill="none" xmlns="http://www.w3.org/2000/svg">
<rect width="50" height="50" rx="10" fill="#153F56"/>
<g clip-path="url(#clip0_38_13)">
<path d="M34.0391 27.332L32.375 26.3711C32.543 25.4648 32.543 24.5351 32.375 23.6289L34.0391 22.6679C34.2305 22.5586 34.3164 22.332 34.2539 22.1211C33.8203 20.7304 33.082 19.4726 32.1172 18.4258C31.9687 18.2656 31.7266 18.2265 31.5391 18.3359L29.875 19.2969C29.1758 18.6953 28.3711 18.2304 27.5 17.9258V16.0078C27.5 15.789 27.3477 15.5976 27.1328 15.5508C25.6992 15.2304 24.2305 15.2461 22.8672 15.5508C22.6523 15.5976 22.5 15.789 22.5 16.0078V17.9297C21.6328 18.2383 20.8281 18.7031 20.125 19.3008L18.4648 18.3398C18.2734 18.2304 18.0352 18.2656 17.8867 18.4297C16.9219 19.4726 16.1836 20.7304 15.75 22.125C15.6836 22.3359 15.7734 22.5625 15.9648 22.6718L17.6289 23.6328C17.4609 24.539 17.4609 25.4687 17.6289 26.375L15.9648 27.3359C15.7734 27.4453 15.6875 27.6718 15.75 27.8828C16.1836 29.2734 16.9219 30.5312 17.8867 31.5781C18.0352 31.7383 18.2773 31.7773 18.4648 31.6679L20.1289 30.707C20.8281 31.3086 21.6328 31.7734 22.5039 32.0781V34C22.5039 34.2187 22.6562 34.4101 22.8711 34.457C24.3047 34.7773 25.7734 34.7617 27.1367 34.457C27.3516 34.4101 27.5039 34.2187 27.5039 34V32.0781C28.3711 31.7695 29.1758 31.3047 29.8789 30.707L31.543 31.6679C31.7344 31.7773 31.9727 31.7422 32.1211 31.5781C33.0859 30.5351 33.8242 29.2773 34.2578 27.8828C34.3164 27.6679 34.2305 27.4414 34.0391 27.332ZM25 28.125C23.2773 28.125 21.875 26.7226 21.875 25C21.875 23.2773 23.2773 21.875 25 21.875C26.7227 21.875 28.125 23.2773 28.125 25C28.125 26.7226 26.7227 28.125 25 28.125Z" fill="#9BADB7"/>
</g>
<defs>
<clipPath id="clip0_38_13">
<rect width="20" height="20" fill="white" transform="translate(15 15)"/>
</clipPath>
</defs>
</svg>
