<svg width="272" height="362" viewBox="0 0 272 362" fill="none" xmlns="http://www.w3.org/2000/svg">
<path d="M181 101.812V22.625C181 10.1296 191.13 0 203.625 0C216.12 0 226.25 10.1296 226.25 22.625V101.812H181ZM260.188 113.125H11.3125C5.06447 113.125 0 118.189 0 124.438V147.062C0 153.311 5.06447 158.375 11.3125 158.375H22.625V181C22.625 235.728 61.4898 281.378 113.125 291.86V362H158.375V291.86C210.01 281.378 248.875 235.728 248.875 181V158.375H260.188C266.436 158.375 271.5 153.311 271.5 147.062V124.438C271.5 118.189 266.436 113.125 260.188 113.125ZM90.5 101.812V22.625C90.5 10.1296 80.3704 0 67.875 0C55.3796 0 45.25 10.1296 45.25 22.625V101.812H90.5Z" fill="white"/>
<path d="M181 101.812V22.625C181 10.1296 191.13 0 203.625 0C216.12 0 226.25 10.1296 226.25 22.625V101.812H181ZM90.5 101.812V22.625C90.5 10.1296 80.3704 0 67.875 0C55.3796 0 45.25 10.1296 45.25 22.625V101.812H90.5Z" fill="#0F77FF"/>
</svg>
