<svg width="117" height="27" viewBox="0 0 117 27" fill="none" xmlns="http://www.w3.org/2000/svg">
<path d="M4.216 26.4H0.664V1.216H4.216V12.192L9.848 1.216H13.848L8.856 9.984L13.976 26.4H10.392L6.552 14.08L4.216 18.24V26.4ZM14.4733 26.4L20.2653 1.216H24.0733L29.9613 26.4H26.2173L25.0013 20.416H19.3373L18.1213 26.4H14.4733ZM19.9133 17.312H24.4253L22.2173 6.208L19.9133 17.312ZM35.4973 26.4H31.9133V1.216H37.0333C41.7373 1.216 43.7213 3.776 43.7213 7.264V10.272C43.7213 12.288 42.8573 14.144 40.9053 15.36L44.5533 26.4H40.9693L37.7053 16.16H35.4973V26.4ZM35.4973 4.192V13.216H36.9373C39.0173 13.216 40.1693 12.608 40.1693 10.24V7.296C40.1693 5.024 39.1773 4.192 36.9373 4.192H35.4973ZM44.0768 4.064V1.216H58.4448V4.064H53.0048V26.4H49.4848V4.064H44.0768Z" fill="#0F77FF"/>
<path d="M60.6008 26.4V1.216H66.0408C70.7448 1.216 72.7288 3.776 72.7288 7.264V10.88C72.7288 14.336 70.7448 16.832 66.0408 16.832H64.1848V26.4H60.6008ZM64.1848 4.192V13.824H65.9448C68.0248 13.824 69.1448 13.216 69.1448 10.848V7.296C69.1448 5.024 68.1848 4.192 65.9448 4.192H64.1848ZM86.102 26.4H75.414V1.216H78.966V23.52H86.102V26.4ZM87.841 18.048V1.216H91.361V18.048C91.361 22.688 92.513 23.744 94.305 23.744C96.257 23.744 97.377 22.432 97.377 18.048V1.216H100.897V18.048C100.897 24.288 99.105 26.688 94.305 26.688C89.761 26.688 87.841 24.416 87.841 18.048ZM103.373 9.888C103.373 4.32 105.805 0.831999 110.445 0.831999C114.477 0.831999 116.685 3.424 116.685 6.912H113.549C113.549 4.992 112.045 3.968 110.509 3.872C108.365 3.872 106.893 5.664 106.893 10.112V17.632C106.893 21.728 107.725 23.68 110.317 23.68C112.141 23.68 113.229 22.208 113.229 20.704V16.16H109.997V13.216H116.749V20.352C116.749 24.608 113.709 26.688 110.317 26.688C105.197 26.688 103.373 23.264 103.373 17.824V9.888Z" fill="#CECFD0"/>
</svg>
