<svg width="59" height="14" viewBox="0 0 59 14" fill="none" xmlns="http://www.w3.org/2000/svg">
<path d="M2.608 0.608V6.096L5.424 0.608H7.424L4.928 4.992L7.488 13.2H5.696L3.776 7.04L2.608 9.12V13.2H0.832V0.608H2.608ZM7.73663 13.2L10.6326 0.608H12.5366L15.4806 13.2H13.6086L13.0006 10.208H10.1686L9.56063 13.2H7.73663ZM12.7126 8.656L11.6086 3.104L10.4566 8.656H12.7126ZM19.0166 0.608C20.19 0.608 21.038 0.896 21.5606 1.472C22.094 2.048 22.3606 2.768 22.3606 3.632V5.136C22.3606 5.648 22.2433 6.128 22.0086 6.576C21.7846 7.01333 21.4326 7.38133 20.9526 7.68L22.7766 13.2H20.9846L19.3526 8.08H18.2486V13.2H16.4566V0.608H19.0166ZM18.2486 2.096V6.608H18.9686C19.4806 6.608 19.8753 6.512 20.1526 6.32C20.4406 6.11733 20.5846 5.71733 20.5846 5.12V3.648C20.5846 3.08267 20.4513 2.68267 20.1846 2.448C19.9286 2.21333 19.5233 2.096 18.9686 2.096H18.2486ZM29.7224 0.608V2.032H27.0024V13.2H25.2424V2.032H22.5384V0.608H29.7224Z" fill="#0F77FF"/>
<path d="M30.8004 0.608H33.5204C34.6937 0.608 35.5417 0.896 36.0644 1.472C36.5977 2.048 36.8644 2.768 36.8644 3.632V5.44C36.8644 6.304 36.5977 7.01867 36.0644 7.584C35.5417 8.13867 34.6937 8.416 33.5204 8.416H32.5924V13.2H30.8004V0.608ZM32.5924 2.096V6.912H33.4724C33.9844 6.912 34.379 6.816 34.6564 6.624C34.9337 6.42133 35.0724 6.02133 35.0724 5.424V3.648C35.0724 3.08267 34.9444 2.68267 34.6884 2.448C34.4324 2.21333 34.027 2.096 33.4724 2.096H32.5924ZM38.207 13.2V0.608H39.983V11.76H43.551V13.2H38.207ZM44.4205 0.608H46.1805V9.024C46.1805 9.61067 46.2125 10.0907 46.2765 10.464C46.3512 10.8267 46.4525 11.1147 46.5805 11.328C46.7085 11.5413 46.8632 11.6853 47.0445 11.76C47.2258 11.8347 47.4285 11.872 47.6525 11.872C48.1325 11.872 48.5058 11.6747 48.7725 11.28C49.0498 10.8747 49.1885 10.1227 49.1885 9.024V0.608H50.9485V9.024C50.9485 10.592 50.6978 11.7013 50.1965 12.352C49.6952 13.0133 48.8472 13.344 47.6525 13.344C46.5112 13.344 45.6845 13.024 45.1725 12.384C44.6712 11.744 44.4205 10.624 44.4205 9.024V0.608ZM52.1865 8.912V4.944C52.1865 3.55733 52.4852 2.45867 53.0825 1.648C53.6798 0.826666 54.5598 0.415999 55.7225 0.415999C56.7252 0.415999 57.4932 0.709333 58.0265 1.296C58.5705 1.872 58.8425 2.592 58.8425 3.456H57.2745C57.2745 2.976 57.1145 2.61333 56.7945 2.368C56.4852 2.112 56.1385 1.968 55.7545 1.936C55.2105 1.936 54.7732 2.18133 54.4425 2.672C54.1118 3.152 53.9465 3.94667 53.9465 5.056V8.816C53.9465 9.84 54.0692 10.6027 54.3145 11.104C54.5598 11.5947 55.0078 11.84 55.6585 11.84C56.1065 11.84 56.4585 11.6907 56.7145 11.392C56.9812 11.0827 57.1145 10.736 57.1145 10.352V8.08H55.4985V6.608H58.8745V10.176C58.8745 10.7093 58.7838 11.1787 58.6025 11.584C58.4318 11.9787 58.1972 12.304 57.8985 12.56C57.5998 12.8267 57.2532 13.024 56.8585 13.152C56.4745 13.28 56.0745 13.344 55.6585 13.344C54.3785 13.344 53.4772 12.944 52.9545 12.144C52.4425 11.3547 52.1865 10.2773 52.1865 8.912Z" fill="#C0C1C2"/>
</svg>
