<svg width="534" height="75" viewBox="0 0 534 75" fill="none" xmlns="http://www.w3.org/2000/svg">
<path d="M62.832 0.863995L34.224 33.408L63.216 73.728H45.264L24.24 44.544L15.216 54.528V73.728H0.624001V1.056H15.216V32.928L43.44 0.863995H62.832ZM114.692 0.959999L140.9 73.728H125.348L118.82 55.488H92.4203L85.7003 73.728H70.1483L97.0283 0.959999H114.692ZM97.0283 43.008H114.308L105.86 19.104L97.0283 43.008ZM179.136 37.44C185.952 37.44 190.272 33.408 190.272 25.44C190.272 17.472 185.952 13.44 179.136 13.44H165.312V37.44H179.136ZM208.32 73.728H190.848L175.2 49.92H165.312V73.728H150.72V0.959999H182.304C195.552 0.959999 204.864 10.272 204.864 24.864C204.864 33.504 202.56 40.8 190.944 47.328L208.32 73.728ZM266.946 0.959999V13.44H247.938V73.728H233.346V13.44H213.954V0.959999H266.946Z" fill="white"/>
<path d="M306.078 37.44C312.702 37.44 317.31 32.448 317.31 25.44C317.31 18.432 312.702 13.44 306.078 13.44H291.966V37.44H306.078ZM306.558 0.959999C321.438 0.959999 331.902 11.04 331.902 25.44C331.902 39.84 321.438 49.92 306.558 49.92H291.966V73.728H277.374V0.959999H306.558ZM355.151 0.959999V61.248H385.967V73.728H340.559V0.959999H355.151ZM423.654 74.4C405.414 74.4 394.566 62.016 394.566 44.352V0.959999H409.158V44.16C409.158 54.336 413.574 60.768 423.654 60.768C433.734 60.768 438.15 54.336 438.15 44.16V0.959999H452.742V44.352C452.742 62.016 441.894 74.4 423.654 74.4ZM533.273 34.944V41.952C533.273 61.728 520.601 74.496 499.193 74.496C477.593 74.496 462.329 59.136 462.329 37.344C462.329 15.552 477.593 0.287996 499.193 0.287996C522.233 0.287996 530.585 17.76 530.585 17.76L518.393 24.576C518.393 24.576 512.825 12.96 499.097 12.96C485.465 12.96 476.921 22.368 476.921 37.344C476.921 52.416 485.465 61.824 499.097 61.824C508.889 61.824 518.393 57.888 518.681 46.464H500.057V34.944H533.273Z" fill="#0AACDF"/>
</svg>
